<?xml version="1.0" ?><!DOCTYPE svg  PUBLIC '-//W3C//DTD SVG 1.1//EN'  'http://www.w3.org/Graphics/SVG/1.1/DTD/svg11.dtd'><svg enable-background="new 0 0 48 48" height="48px" id="Layer_1" version="1.1" viewBox="0 0 48 48" width="48px" xml:space="preserve" xmlns="http://www.w3.org/2000/svg" xmlns:xlink="http://www.w3.org/1999/xlink"><g><path d="M24,0C10.745,0,0,10.745,0,24s10.745,24,24,24s24-10.745,24-24S37.255,0,24,0z M24.111,44.091   c-11.069,0-20.042-8.973-20.042-20.041c0-11.069,8.973-20.042,20.042-20.042c11.068,0,20.041,8.972,20.041,20.042   C44.152,35.118,35.18,44.091,24.111,44.091z" fill="#231F20"/><path d="M29.463,13.58H18.537c-1.125,0-2.036,0.896-2.036,2v8.445v1.629v8.517c0.005,0.111,0.109,0.437,1.265-0.035   h0l5.567-2.269c0.038-0.015,0.707-0.269,1.37,0.003c0.001,0,0.001,0,0.001,0l5.884,2.408c0.344,0.128,0.912,0.283,0.912-0.104   v-8.52v-1.629V15.58C31.5,14.476,30.588,13.58,29.463,13.58z M28.469,23.594v0.967v5.05c0,0.213-0.242,0.177-0.443,0.109   l-3.485-1.427c-0.471-0.192-1.016-0.005-1.026-0.001l-3.028,1.234l0,0c-0.845,0.345-0.917,0.101-0.92,0.022v-4.988v-0.967V18.58   c0-0.655,0.541-1.188,1.208-1.188h6.486c0.668,0,1.209,0.532,1.209,1.188V23.594z" fill="#231F20"/></g></svg>